<?xml version="1.0" encoding="UTF-8" standalone="no"?>
<svg
   xmlns:dc="http://purl.org/dc/elements/1.1/"
   xmlns:cc="http://creativecommons.org/ns#"
   xmlns:rdf="http://www.w3.org/1999/02/22-rdf-syntax-ns#"
   xmlns:svg="http://www.w3.org/2000/svg"
   xmlns="http://www.w3.org/2000/svg"
   xmlns:xlink="http://www.w3.org/1999/xlink"
   xmlns:sodipodi="http://sodipodi.sourceforge.net/DTD/sodipodi-0.dtd"
   xmlns:inkscape="http://www.inkscape.org/namespaces/inkscape"
   id="svg14789"
   viewBox="0 0 95 95"
   version="1.1"
   sodipodi:docname="bee-forestgreen-flat.svg"
   inkscape:version="0.92.1 r15371"
   inkscape:export-filename="/home/imx6/workspace/bee-gt5/SpellingBee.png"
   inkscape:export-xdpi="97.010529"
   inkscape:export-ydpi="97.010529">
  <sodipodi:namedview
     pagecolor="#ffffff"
     bordercolor="#666666"
     borderopacity="1"
     objecttolerance="10"
     gridtolerance="10"
     guidetolerance="10"
     inkscape:pageopacity="0"
     inkscape:pageshadow="2"
     inkscape:window-width="1772"
     inkscape:window-height="897"
     id="namedview27"
     showgrid="false"
     inkscape:zoom="2.4842105"
     inkscape:cx="13.283898"
     inkscape:cy="47.5"
     inkscape:window-x="0"
     inkscape:window-y="52"
     inkscape:window-maximized="0"
     inkscape:current-layer="svg14789" />
  <title
     id="title3076">Liitle Bee</title>
  <defs
     id="defs14793">
    <linearGradient
       id="linearGradient3068"
       x1="45.1"
       gradientUnits="userSpaceOnUse"
       x2="84.952"
       y1="61.154"
       y2="61.154">
      <stop
         id="stop15924-76"
         stop-color="#fff"
         offset="0" />
      <stop
         id="stop15926-1"
         stop-color="#a2ffff"
         offset="1" />
    </linearGradient>
    <linearGradient
       id="linearGradient3172"
       x1="45.1"
       gradientUnits="userSpaceOnUse"
       y1="61.154"
       gradientTransform="matrix(-1 0 0 1 94.032 -1.3066)"
       x2="84.952"
       y2="61.154">
      <stop
         id="stop15924-2"
         stop-color="#fff"
         offset="0" />
      <stop
         id="stop15926-2"
         stop-color="#a2ffff"
         offset="1" />
    </linearGradient>
    <linearGradient
       inkscape:collect="always"
       xlink:href="#linearGradient3172"
       id="linearGradient29"
       gradientUnits="userSpaceOnUse"
       gradientTransform="translate(1.3891834,-3.3193119)"
       x1="45.1"
       y1="61.154"
       x2="84.952"
       y2="61.154" />
    <linearGradient
       inkscape:collect="always"
       xlink:href="#linearGradient3172"
       id="linearGradient31"
       gradientUnits="userSpaceOnUse"
       gradientTransform="translate(1.3891834,-3.3193119)"
       x1="45.1"
       y1="61.154"
       x2="84.952"
       y2="61.154" />
    <linearGradient
       inkscape:collect="always"
       xlink:href="#linearGradient3068"
       id="linearGradient33"
       gradientUnits="userSpaceOnUse"
       x1="45.1"
       y1="61.154"
       x2="84.952"
       y2="61.154" />
    <linearGradient
       inkscape:collect="always"
       xlink:href="#linearGradient3068"
       id="linearGradient35"
       gradientUnits="userSpaceOnUse"
       x1="45.1"
       y1="61.154"
       x2="84.952"
       y2="61.154" />
    <linearGradient
       inkscape:collect="always"
       xlink:href="#linearGradient3068"
       id="linearGradient37"
       gradientUnits="userSpaceOnUse"
       x1="45.1"
       y1="61.154"
       x2="84.952"
       y2="61.154" />
  </defs>
  <path
     id="path14800"
     d="m 47.389183,42.480288 c 18.6,1.6 46.132001,11.217 35.8,26 -10.332,14.783 -31,-8.4 -35.8,-26 z"
     style="fill:url(#linearGradient29);stroke:#000000;stroke-width:1.79999995"
     inkscape:connector-curvature="0" />
  <g
     id="g73"
     transform="translate(6.0381356,2.8177966)">
    <path
       style="stroke:#000000;stroke-width:2.19815993"
       inkscape:connector-curvature="0"
       d="m 67.285424,32.879128 a 12.70048,12.70048 0 1 1 -25.40096,0 12.70048,12.70048 0 1 1 25.40096,0 z"
       id="path15590" />
    <path
       style="fill:#ffff00;stroke:#000000;stroke-width:1.79999995"
       inkscape:connector-curvature="0"
       d="m 55.822183,56.239288 c -2.651,12.903 -14.854,24.579 -27.255,26.078 -12.401,1.5 -20.3049996,-7.744 -17.654,-20.648 2.652,-12.903 14.854,-24.578 27.256,-26.078 12.401,-1.499 20.304,7.745 17.653,20.648 z"
       id="path15590-7" />
    <path
       inkscape:connector-curvature="0"
       d="m 25.233183,40.805288 c -2.1876,1.5259 -4.2297,3.3109 -6.0625,5.3125 1.6387,0.12654 3.55,0.29768 5.7188,0.59375 5.408,0.73828 11.766,2.2611 14.781,4.3125 l 0.125,0.09375 c 2.9597,2.0849 6.8656,7.6626 9.7188,12.688 0.64133,1.1295 1.2095,2.1918 1.75,3.2188 1.4291,-2.1934 2.6088,-4.5238 3.4688,-6.9375 -2.0446,-6.0895 -4.5469,-12.949 -9.0312,-16 -4.5252,-3.0791 -12.419,-3.3262 -19.062,-3.2812 -0.8146,0.0055 -0.65187,-0.0039 -1.4062,0 z m -10.281,10.906 c -1.1219,1.8295 -2.0776,3.7435 -2.8125,5.7188 1.1796,0.11523 2.4434,0.25486 3.7812,0.4375 5.6618,0.77294 12.312,2.3523 15.469,4.5 l 0.15625,0.09375 c 3.0986,2.1827 7.1692,8.0205 10.156,13.281 0.17312,0.3049 0.3019,0.57493 0.46875,0.875 1.8169,-1.3304 3.5306,-2.8346 5.0938,-4.5 -2.1553,-6.434 -4.8089,-13.766 -9.5625,-17 -4.7376,-3.2236 -12.982,-3.4533 -19.938,-3.4062 -1.6259,0.01099 -1.4328,-0.0051 -2.8125,0 z m -4.2812,11.344 c -0.25363,1.6902 -0.32088,3.3108 -0.21875,4.8438 4.3964,0.61259 9.4961,1.8388 11.938,3.5 l 0.09375,0.09375 c 2.425,1.7082 5.6311,6.2579 7.9688,10.375 0.02442,0.043 0.03824,0.08211 0.0625,0.125 1.6152,-0.33228 3.2105,-0.82464 4.7812,-1.4688 -0.16236,-0.46518 -0.30468,-0.8847 -0.46875,-1.375 -1.6925,-5.0575 -3.7568,-10.859 -7.5,-13.406 -3.7077,-2.5228 -10.182,-2.7243 -15.625,-2.6875 -0.59678,0.004 -0.47333,-0.0031 -1.0312,0 z"
       style="color:#000000;text-indent:0;text-transform:none"
       id="path15630" />
    <path
       inkscape:connector-curvature="0"
       d="m 46.692183,43.399288 c 11.846,9.186 26.222,27.672 12.811,33.138 -13.411,5.466 -17.245,-19.176 -12.811,-33.138 z"
       style="color:#000000;fill:url(#linearGradient31);stroke:#000000;stroke-width:1.79999995"
       id="path14800-1" />
    <path
       style="stroke:#000000;stroke-width:1px"
       inkscape:connector-curvature="0"
       d="m 66.089183,28.080288 c 9.875,-0.2 11.102,-1.0525 13.15,1.675 2.0477,2.7275 3.1495,7.2871 0.6,7.3 -2.5495,0.01295 -2.405,-4.5076 -3.1434,-6.3622 -0.73841,-1.8546 -5.5066,-2.3003 -10.607,-2.6128 z"
       id="path15841" />
    <path
       style="stroke:#000000;stroke-width:1px"
       inkscape:connector-curvature="0"
       d="m 55.527183,21.439288 c 3.35e-4,-9.877 0.82783,-11.121 -1.9405,-13.1129999 -2.7683,-1.9921 -7.3492,-3.0016 -7.3106,-0.45231 0.03859,2.5492999 4.5553,2.3133999 6.4244,3.0141999 1.8691,0.70077 2.4112,5.459 2.8267,10.552 z"
       id="path15841-2" />
    <g
       transform="matrix(0,-1,-1,0,77.074184,71.936288)"
       style="color:#000000;fill:url(#linearGradient37);stroke:#000000;stroke-width:1.79999995"
       id="g15882">
      <path
         inkscape:connector-curvature="0"
         d="m 29.702,30.083 c 18.6,1.6 46.132,11.217 35.8,26 -10.332,14.783 -31,-8.4 -35.8,-26 z"
         style="color:#000000;fill:url(#linearGradient33)"
         id="path14800-4" />
      <path
         inkscape:connector-curvature="0"
         d="M 29.005,31.002 C 40.851,40.188 55.227,58.673 41.816,64.139 28.405,69.605 24.571,44.963 29.005,31.002 Z"
         style="color:#000000;fill:url(#linearGradient35)"
         id="path14800-1-5" />
    </g>
  </g>
  <path
     id="path15886"
     d="m 15.302183,78.232288 -5.3279996,9.4599 8.1550996,-7.394 z"
     inkscape:connector-curvature="0"
     style="stroke-width:0" />
  <metadata
     id="metadata24">
    <rdf:RDF>
      <cc:Work>
        <dc:format>image/svg+xml</dc:format>
        <dc:type
           rdf:resource="http://purl.org/dc/dcmitype/StillImage" />
        <cc:license
           rdf:resource="http://creativecommons.org/publicdomain/zero/1.0/" />
        <dc:publisher>
          <cc:Agent
             rdf:about="http://openclipart.org/">
            <dc:title>Openclipart</dc:title>
          </cc:Agent>
        </dc:publisher>
        <dc:title>Bee</dc:title>
        <dc:date>2013-09-20T13:44:12</dc:date>
        <dc:description>A bee - it's a slightly altered version of 'Bee' by forestgreen (http://openclipart.org/detail/118099/bee-by-forestgreen) - I just got rid of the white gradients to get a flatter, less 3D look.</dc:description>
        <dc:source>https://openclipart.org/detail/183607/bee-by-anarres-183607</dc:source>
        <dc:creator>
          <cc:Agent>
            <dc:title>anarres</dc:title>
          </cc:Agent>
        </dc:creator>
        <dc:subject>
          <rdf:Bag>
            <rdf:li>bee</rdf:li>
            <rdf:li>bumblebee</rdf:li>
          </rdf:Bag>
        </dc:subject>
      </cc:Work>
      <cc:License
         rdf:about="http://creativecommons.org/publicdomain/zero/1.0/">
        <cc:permits
           rdf:resource="http://creativecommons.org/ns#Reproduction" />
        <cc:permits
           rdf:resource="http://creativecommons.org/ns#Distribution" />
        <cc:permits
           rdf:resource="http://creativecommons.org/ns#DerivativeWorks" />
      </cc:License>
    </rdf:RDF>
  </metadata>
</svg>
